<svg xmlns="http://www.w3.org/2000/svg" xmlns:xlink="http://www.w3.org/1999/xlink" viewBox="0 0 399.7 228.15"><defs><style>.cls-1{fill:#f9f9f9;}.cls-2{fill:#231f20;}.cls-3{fill:url(#linear-gradient);}.cls-4{fill:url(#linear-gradient-2);}.cls-5{fill:url(#linear-gradient-3);}.cls-6{fill:#282827;}.cls-7{fill:url(#linear-gradient-4);}.cls-8{fill:url(#linear-gradient-5);}.cls-9{fill:url(#linear-gradient-6);}.cls-10{font-size:4.45px;fill:#6d6e70;font-family:MyriadPro-Regular, Myriad Pro;}.cls-11{letter-spacing:0.01em;}.cls-12{letter-spacing:0em;}.cls-13{letter-spacing:-0.02em;}.cls-14{letter-spacing:-0.01em;}</style><linearGradient id="linear-gradient" x1="38.27" y1="112.58" x2="361.43" y2="112.58" gradientUnits="userSpaceOnUse"><stop offset="0" stop-color="#929497"/><stop offset="0.5" stop-color="#f1f1f2"/><stop offset="1" stop-color="#929497"/></linearGradient><linearGradient id="linear-gradient-2" x1="199.15" y1="6.75" x2="200.4" y2="8.9" gradientUnits="userSpaceOnUse"><stop offset="0" stop-color="#323031"/><stop offset="0.5" stop-color="#48484a"/><stop offset="1" stop-color="#2c292a"/></linearGradient><linearGradient id="linear-gradient-3" x1="39.76" y1="112.58" x2="359.94" y2="112.58" gradientUnits="userSpaceOnUse"><stop offset="0" stop-color="#404041"/><stop offset="0.5" stop-color="#58595b"/><stop offset="1" stop-color="#404041"/></linearGradient><linearGradient id="linear-gradient-4" x1="0.28" y1="219.77" x2="399.42" y2="219.77" gradientUnits="userSpaceOnUse"><stop offset="0" stop-color="#6d6e70"/><stop offset="0.5" stop-color="#e6e7e8"/><stop offset="1" stop-color="#6d6e70"/></linearGradient><linearGradient id="linear-gradient-5" y1="225.54" x2="399.7" y2="225.54" gradientUnits="userSpaceOnUse"><stop offset="0" stop-color="#404041"/><stop offset="0.5" stop-color="#6d6e70"/><stop offset="1" stop-color="#404041"/></linearGradient><linearGradient id="linear-gradient-6" x1="171.51" y1="218.81" x2="228.19" y2="218.81" gradientUnits="userSpaceOnUse"><stop offset="0" stop-color="#58595b"/><stop offset="0.5" stop-color="#c1b49a" stop-opacity="0"/><stop offset="1" stop-color="#58595b"/></linearGradient></defs><title>macbook</title><g id="Layer_2" data-name="Layer 2"><g id="Layer_1-2" data-name="Layer 1"><rect class="cls-1" x="45.38" y="6.83" width="308.94" height="198.37"/><path class="cls-2" d="M350.27,2.22H49.43a8.57,8.57,0,0,0-8.56,8.56v199.5h318V10.78A8.57,8.57,0,0,0,350.27,2.22ZM354,205.09H45.66V12.84H354Z"/><path class="cls-3" d="M351.15,0H48.55A10.3,10.3,0,0,0,38.27,10.28V214.87a10.3,10.3,0,0,0,10.28,10.28h302.6a10.29,10.29,0,0,0,10.28-10.28V10.28A10.29,10.29,0,0,0,351.15,0Zm8.79,214.38a9.68,9.68,0,0,1-9.67,9.67H49.43a9.68,9.68,0,0,1-9.67-9.67V10.78A9.69,9.69,0,0,1,49.43,1.1H350.27a9.69,9.69,0,0,1,9.67,9.68Z"/><circle class="cls-4" cx="199.85" cy="7.95" r="1.04"/><path class="cls-5" d="M350.27,224.05H49.43a9.68,9.68,0,0,1-9.67-9.67V10.78A9.69,9.69,0,0,1,49.43,1.1H350.27a9.69,9.69,0,0,1,9.67,9.68v203.6A9.68,9.68,0,0,1,350.27,224.05ZM49.43,2.22a8.57,8.57,0,0,0-8.56,8.56v203.6a8.57,8.57,0,0,0,8.56,8.56H350.27a8.57,8.57,0,0,0,8.56-8.56V10.78a8.57,8.57,0,0,0-8.56-8.56Z"/><path class="cls-6" d="M40.87,210.28v4.1a8.57,8.57,0,0,0,8.56,8.56H350.27a8.57,8.57,0,0,0,8.56-8.56v-4.1Z"/><path class="cls-7" d="M2.17,216.61H397.53a1.89,1.89,0,0,1,1.89,1.89v4.44a0,0,0,0,1,0,0H.28a0,0,0,0,1,0,0V218.5A1.89,1.89,0,0,1,2.17,216.61Z"/><path class="cls-8" d="M0,222.94s7.18,5.21,38.09,5.21H361.61c30.91,0,38.09-5.21,38.09-5.21Z"/><path class="cls-9" d="M171.51,216.61s.19,4.41,5.56,4.41h45.56c5.37,0,5.56-4.41,5.56-4.41Z"/><text class="cls-10" transform="translate(187.74 214.75)"><tspan class="cls-11">M</tspan><tspan x="3.6" y="0">ac</tspan><tspan class="cls-12" x="7.73" y="0">B</tspan><tspan x="10.16" y="0">ook </tspan><tspan class="cls-13" x="18.07" y="0">P</tspan><tspan class="cls-14" x="20.36" y="0">r</tspan><tspan x="21.77" y="0">o</tspan></text></g></g></svg>