<svg xmlns="http://www.w3.org/2000/svg" xmlns:xlink="http://www.w3.org/1999/xlink" viewBox="0 0 77.92 77.66"><defs><style>.cls-1{fill:none;}.cls-2{clip-path:url(#clip-path);}</style><clipPath id="clip-path" transform="translate(0 -0.21)"><rect class="cls-1" width="78" height="78"/></clipPath></defs><title>design</title><g id="Layer_2" data-name="Layer 2"><g id="Layer_1-2" data-name="Layer 1"><g class="cls-2"><path d="M75.81,53.75,64.06,48.08l11.75-5.67a3.74,3.74,0,0,0,0-6.74L64.06,30l11.75-5.68a3.73,3.73,0,0,0,0-6.73L58.37,9.17a1.13,1.13,0,0,0-1.52.53,1.15,1.15,0,0,0,.53,1.52l17.44,8.41a1.46,1.46,0,0,1,0,2.64l-35.22,17a1.49,1.49,0,0,1-1.27,0L3.1,22.27a1.47,1.47,0,0,1,0-2.64l35.23-17a1.49,1.49,0,0,1,1.27,0l13,6.28a1.14,1.14,0,0,0,1-2L40.59.58a3.71,3.71,0,0,0-3.25,0l-35.23,17a3.74,3.74,0,0,0,0,6.73L13.87,30,2.11,35.67a3.75,3.75,0,0,0,0,6.74l11.76,5.67L2.11,53.75a3.75,3.75,0,0,0,0,6.74l35.23,17a3.71,3.71,0,0,0,3.25,0L54.86,70.6a1.14,1.14,0,0,0-1-2L39.6,75.44a1.42,1.42,0,0,1-1.27,0L3.1,58.44a1.47,1.47,0,0,1,0-2.64l13.38-6.46L37.34,59.41a3.71,3.71,0,0,0,3.25,0L61.44,49.34,74.82,55.8a1.46,1.46,0,0,1,0,2.64l-16.16,7.8a1.14,1.14,0,0,0,1,2.05l16.16-7.8a3.74,3.74,0,0,0,0-6.74ZM39.6,57.36a1.42,1.42,0,0,1-1.27,0L3.1,40.36a1.47,1.47,0,0,1,0-2.64l13.38-6.46L37.34,41.33a3.78,3.78,0,0,0,3.25,0L61.44,31.26l13.38,6.46a1.46,1.46,0,0,1,0,2.64Z" transform="translate(0 -0.21)"/></g></g></g></svg>