<svg xmlns="http://www.w3.org/2000/svg" xmlns:xlink="http://www.w3.org/1999/xlink" viewBox="0 0 86.48 86.46"><defs><style>.cls-1{fill:none;}.cls-2{clip-path:url(#clip-path);}</style><clipPath id="clip-path" transform="translate(0 -0.21)"><rect class="cls-1" width="86.67" height="86.89"/></clipPath></defs><title>earth</title><g id="Layer_2" data-name="Layer 2"><g id="Layer_1-2" data-name="Layer 1"><g class="cls-2"><path d="M43.25.21A43.21,43.21,0,0,0,3.51,26.42L3,26.6l.21.63A43.23,43.23,0,1,0,43.25.21Zm33.91,65L74.94,63V57.85a1.32,1.32,0,0,0-.14-.65L69.18,46V40.55a1.42,1.42,0,0,0-.64-1.19l-4.33-2.89a1.49,1.49,0,0,0-1.15-.2L57.77,37.6l-8.9-3.82-1.22-8.57L51,21.82h7.28l2.45,3.68a1.42,1.42,0,0,0,1,.62l8.65,1.45a1.47,1.47,0,0,0,.69-.06l8-2.65a40.18,40.18,0,0,1-1.87,40.37ZM71.22,14.41,68.88,16l-6.54-1.31-4.23-1.41a1.4,1.4,0,0,0-.81,0l-5.36,1.34-2.34-.78,1.74-3.49h4.87a1.43,1.43,0,0,0,.64-.15l5-2.49a40.56,40.56,0,0,1,9.38,6.76ZM27.46,6.31l3.46,2.3a1.29,1.29,0,0,0,.56.22l7,1.17-.68,2-3.64,1.21a1.47,1.47,0,0,0-.78.63l-4.14,6.89-6.64,4-9.8,1.4a1.44,1.44,0,0,0-1.24,1.43v4.32a1.45,1.45,0,0,0,.42,1l2.46,2.46v2.47l-6-4L6.25,27.34a40.58,40.58,0,0,1,21.21-21Zm-4.1,47.24-6.52-1.3-2.42-4.83V44l5.37-5.37,2,4a1.43,1.43,0,0,0,1.29.8h9.27l3.9,6.5a1.43,1.43,0,0,0,1.24.7h4l-1,5L35,61.15a1.45,1.45,0,0,0-.42,1v3.6l-5.19,3.89a1.43,1.43,0,0,0-.58,1.16V76L27,75.43,24.51,69.1V55a1.44,1.44,0,0,0-1.15-1.41ZM19,75.7a40.34,40.34,0,0,1-14.37-44l1.2,3.59a1.44,1.44,0,0,0,.57.74l7.18,4.79L12,42.42a1.43,1.43,0,0,0-.42,1v4.32a1.43,1.43,0,0,0,.15.64l2.88,5.77a1.44,1.44,0,0,0,1,.77l6,1.2V69.37a1.41,1.41,0,0,0,.11.54l2.88,7.2a1.46,1.46,0,0,0,.88.84l4.32,1.44a1.41,1.41,0,0,0,.45.07A1.43,1.43,0,0,0,31.71,78V71.54l5.19-3.9a1.43,1.43,0,0,0,.58-1.15V62.77l5.34-5.35a1.38,1.38,0,0,0,.39-.73l1.44-7.21a1.43,1.43,0,0,0-1.13-1.69,1.27,1.27,0,0,0-.28,0h-5l-3.9-6.51a1.47,1.47,0,0,0-1.24-.7H24l-2.48-5a1.41,1.41,0,0,0-1.06-.78,1.42,1.42,0,0,0-1.25.4L17.3,37.08V34.79a1.45,1.45,0,0,0-.42-1l-2.46-2.46V28.83l8.85-1.26a1.52,1.52,0,0,0,.54-.19L31,23.06a1.41,1.41,0,0,0,.5-.5l4.05-6.74,3.81-1.28a1.42,1.42,0,0,0,.91-.91l1.45-4.32a1.45,1.45,0,0,0-.92-1.82l-.21-.06L32.25,6l-1.46-1a40.22,40.22,0,0,1,27.71,1L55.87,7.41H50.45a1.45,1.45,0,0,0-1.3.8L46.27,14a1.44,1.44,0,0,0,.64,1.94l.19.07,4.32,1.44a1.49,1.49,0,0,0,.81,0l5.36-1.34,3.92,1.3.17,0,7.21,1.44A1.43,1.43,0,0,0,70,18.7l3.28-2.19a40.67,40.67,0,0,1,4.34,5.79L70.5,24.67l-7.68-1.28-2.54-3.81a1.42,1.42,0,0,0-1.19-.64H50.45a1.43,1.43,0,0,0-1,.42L45.1,23.69a1.41,1.41,0,0,0-.4,1.22L46.14,35A1.46,1.46,0,0,0,47,36.12l10.09,4.32a1.45,1.45,0,0,0,.92.07l5.14-1.29,3.15,2.11v5a1.3,1.3,0,0,0,.14.64l5.62,11.23v5.42a1.45,1.45,0,0,0,.42,1l3,3A40.34,40.34,0,0,1,19,75.7Z" transform="translate(0 -0.21)"/></g></g></g></svg>