<svg xmlns="http://www.w3.org/2000/svg" viewBox="0 0 77.76 67.26"><title>hospital</title><g id="Layer_2" data-name="Layer 2"><g id="Layer_1-2" data-name="Layer 1"><path d="M76.24,64.22H68.46v-29a4.53,4.53,0,0,0-4.52-4.53H60.6V29.5a3.39,3.39,0,0,0-3.39-3.39H54.05V4.71A4.71,4.71,0,0,0,49.34,0H27.53a4.71,4.71,0,0,0-4.71,4.71v21.4h-3A3.39,3.39,0,0,0,16.4,29.5v1.17H12.93A4.53,4.53,0,0,0,8.41,35.2v29H1.52a1.52,1.52,0,0,0,0,3H76.24a1.52,1.52,0,1,0,0-3ZM25.85,4.71A1.68,1.68,0,0,1,27.53,3H49.34A1.68,1.68,0,0,1,51,4.71v21.4H25.85ZM29,64.22v-9a.9.9,0,0,1,.9-.89h7.49v9.94Zm11.43,0V54.28h7.49a.9.9,0,0,1,.9.89v9Zm11.42,0v-9a3.93,3.93,0,0,0-3.93-3.93h-18a3.93,3.93,0,0,0-3.93,3.93v9H11.44v-29a1.49,1.49,0,0,1,1.49-1.49H42.07a1.52,1.52,0,1,0,0-3H19.44V29.5a.35.35,0,0,1,.35-.35H57.21a.35.35,0,0,1,.35.35v1.17H54.22a1.52,1.52,0,1,0,0,3h9.72a1.49,1.49,0,0,1,1.49,1.49v29Z"/><path d="M46.6,10.85H42.5V6.75A1.52,1.52,0,0,0,41,5.23H35.89a1.52,1.52,0,0,0-1.52,1.52v4.1h-4.1a1.52,1.52,0,0,0-1.52,1.52v5.09A1.52,1.52,0,0,0,30.27,19h4.1v4.1a1.52,1.52,0,0,0,1.52,1.52H41a1.52,1.52,0,0,0,1.52-1.52V19h4.1a1.52,1.52,0,0,0,1.52-1.52V12.37a1.52,1.52,0,0,0-1.52-1.52Zm-1.52,5.09H41a1.52,1.52,0,0,0-1.52,1.52v4.1H37.41v-4.1a1.52,1.52,0,0,0-1.52-1.52h-4.1V13.88h4.1a1.52,1.52,0,0,0,1.52-1.51V8.27h2.05v4.1A1.52,1.52,0,0,0,41,13.88h4.1Z"/><path d="M25.44,37.5H18A2.52,2.52,0,0,0,15.49,40v5.62A2.51,2.51,0,0,0,18,48.13h7.44A2.51,2.51,0,0,0,28,45.63V40a2.52,2.52,0,0,0-2.51-2.51Zm-.53,7.6H18.53V40.54h6.38Z"/><path d="M42.6,37.5H35.16A2.52,2.52,0,0,0,32.65,40v5.62a2.51,2.51,0,0,0,2.51,2.5H42.6a2.51,2.51,0,0,0,2.51-2.5V40A2.52,2.52,0,0,0,42.6,37.5Zm-.53,7.6H35.69V40.54h6.38Z"/><path d="M59.76,37.5H52.32A2.51,2.51,0,0,0,49.82,40v5.62a2.5,2.5,0,0,0,2.5,2.5h7.44a2.51,2.51,0,0,0,2.51-2.5V40a2.52,2.52,0,0,0-2.51-2.51Zm-.53,7.6H52.85V40.54h6.38Z"/><path d="M48.15,30.67h0a1.52,1.52,0,1,0,1.52,1.52,1.52,1.52,0,0,0-1.52-1.52Z"/></g></g></svg>