<svg xmlns="http://www.w3.org/2000/svg" viewBox="0 0 74.64 74.64"><title>medicine</title><g id="Layer_2" data-name="Layer 2"><g id="Layer_1-2" data-name="Layer 1"><path d="M44.1,61.09a1.24,1.24,0,0,0-1.66.56,1.25,1.25,0,0,0,0,1.16,1.24,1.24,0,0,0,1.07,1.88,1.19,1.19,0,0,0,.58-.15,1.9,1.9,0,0,0,1.2-1.72,2.07,2.07,0,0,0-1.22-1.73Z"/><path d="M41.73,23.07a4,4,0,0,1,.57.57,3.18,3.18,0,0,1-.93,1.65L39.74,27.1a1.25,1.25,0,0,0,.09,1.76,1.28,1.28,0,0,0,.84.32,1.23,1.23,0,0,0,.92-.41L43.18,27a5.46,5.46,0,0,0,1.6-3.36,3.3,3.3,0,0,0-1.48-2.5,1.24,1.24,0,0,0-1.57,1.93Z"/><path d="M30.33,53.58c-1.35-1.45-3-3.71-3-6.31a8.36,8.36,0,0,1,1.72-4.78,1.24,1.24,0,1,0-2-1.44,10.78,10.78,0,0,0-2.18,6.22c0,3.41,2,6.24,3.64,8a1.23,1.23,0,0,0,.91.39,1.26,1.26,0,0,0,.85-.33,1.25,1.25,0,0,0,0-1.76Z"/><path d="M17,28.68c-3.69,1.23-5.81,1-7.3-.79L8.51,26l5.28-.44A1.24,1.24,0,0,0,13.58,23L7,23.58,5.3,20.81l8.61-1.55a1.25,1.25,0,0,0-.45-2.45L3.88,18.54l-.31-.49a5.54,5.54,0,0,1-1.08-3.12c0-.45.66-1,1.54-1.28l27.29-5a1.24,1.24,0,0,0-.44-2.45l-27.37,5a.7.7,0,0,0-.14,0C1.32,11.87,0,13.31,0,14.93a7.93,7.93,0,0,0,1.43,4.39l6.22,10,.09.12a6.59,6.59,0,0,0,5.41,2.55,15.12,15.12,0,0,0,4.66-.9,1.26,1.26,0,0,0,.79-1.58A1.24,1.24,0,0,0,17,28.68Z"/><path d="M47.83,11.33a12.05,12.05,0,0,0-4.21-.92,1.27,1.27,0,0,0-1.33,1.16,1.25,1.25,0,0,0,1.16,1.33,10,10,0,0,1,3.27.65,11.18,11.18,0,0,1,5.53,10.09c0,5.53-5.91,10.35-6,10.4a1.23,1.23,0,0,0-.2,1.74,1.25,1.25,0,0,0,1.75.2c.28-.23,6.91-5.6,6.91-12.34a13.71,13.71,0,0,0-6.91-12.31Z"/><path d="M71.27,11.25a.7.7,0,0,0-.14,0l-27.37-5a1.24,1.24,0,0,0-.44,2.45l27.29,5c.88.28,1.54.83,1.54,1.28A5.45,5.45,0,0,1,71.1,18l-.34.54-9.58-1.73a1.24,1.24,0,1,0-.44,2.45l8.6,1.55-1.73,2.77L61.06,23a1.24,1.24,0,0,0-.21,2.48l5.28.43-1.21,1.94c-1.48,1.79-3.61,2-7.3.79a1.24,1.24,0,0,0-1.58.78A1.26,1.26,0,0,0,56.83,31a15.12,15.12,0,0,0,4.66.9,6.59,6.59,0,0,0,5.41-2.55,1.25,1.25,0,0,0,.09-.12l6.25-10a7.85,7.85,0,0,0,1.4-4.34c0-1.62-1.32-3.06-3.37-3.68Z"/><path d="M34.26,45.19a1.24,1.24,0,0,0-1.62.68,3.64,3.64,0,0,0-.3,1.4,4.28,4.28,0,0,0,.71,2.21,1.26,1.26,0,0,0,1.06.59,1.23,1.23,0,0,0,.66-.19,1.25,1.25,0,0,0,.4-1.71,1.89,1.89,0,0,1-.34-.9,1.37,1.37,0,0,1,.11-.46,1.24,1.24,0,0,0-.68-1.62Z"/><path d="M33.63,17.42a1.25,1.25,0,0,0,0-2.49h0a1.24,1.24,0,0,0-1.23,1.24,1.25,1.25,0,0,0,1.25,1.25Z"/><path d="M38.56,30.59V20.49a4.59,4.59,0,0,0,2.49-4.32,4.94,4.94,0,0,0-2.49-4.37V7.23a3.73,3.73,0,1,0-2.48,0v3.55a15.74,15.74,0,0,0-3.75-.42,13.8,13.8,0,0,0-5.52,1A13.71,13.71,0,0,0,19.9,23.64c0,6.74,6.42,11.94,6.69,12.16l9.49,7.59V52.3l-3.37,4a10.78,10.78,0,0,0-2.85,7.1c0,4.51,3.14,6.07,5.66,7.34l.24.12.32.16V73.4a1.24,1.24,0,1,0,2.48,0V72.19a6.89,6.89,0,0,0,2.41.55,2.77,2.77,0,0,0,2.32-1.08c1.52-2-.18-4.35-1.49-5.48L38,63.31l7.62-7.62c.16-.14,4.17-3.57,4.17-8.42,0-5.43-3.93-9.42-4.1-9.59ZM37.32,2.49a1.25,1.25,0,1,1-1.24,1.24,1.24,1.24,0,0,1,1.24-1.24ZM43.9,53.86l-8.7,8.7a1.24,1.24,0,0,0,.13,1.88l4.91,3.68c.45.39,1.43,1.56,1.07,2,0,0-.07.09-.33.09-1,0-2.63-.84-4.1-1.58l-.25-.12c-2.66-1.33-4.29-2.29-4.29-5.11A8.41,8.41,0,0,1,34.54,58l6.15-7.38a5.49,5.49,0,0,0,1.61-3.37,5.52,5.52,0,0,0-1.61-3.37l-.1-.09-12.44-10c-.06,0-5.76-4.69-5.76-10.22a11.18,11.18,0,0,1,5.53-10.09,11.82,11.82,0,0,1,4.41-.7c1.46,0,6.23.24,6.23,3.32,0,1.73-1,2.23-3.34,3A16.19,16.19,0,0,0,33,20c-.74.38-3.17,1.74-3.17,3.61A5.46,5.46,0,0,0,31.46,27l4.93,4.93a1.59,1.59,0,0,0,.13.13l7.38,7.38s3.37,3.42,3.37,7.83c0,3.68-3.26,6.49-3.37,6.59Zm-5.34-4.55V45.38l.41.33a3,3,0,0,1,.84,1.56,3.22,3.22,0,0,1-1,1.69ZM36.08,21.53V28.1l-2.85-2.85a3.15,3.15,0,0,1-.89-1.56,4.64,4.64,0,0,1,1.8-1.43A16.47,16.47,0,0,1,36,21.55l.08,0Z"/></g></g></svg>