<svg xmlns="http://www.w3.org/2000/svg" xmlns:xlink="http://www.w3.org/1999/xlink" viewBox="0 0 68.76 70.08"><defs><style>.cls-1{fill:none;}.cls-2{clip-path:url(#clip-path);}</style><clipPath id="clip-path" transform="translate(-0.15 -0.05)"><rect class="cls-1" width="68.92" height="70.3"/></clipPath></defs><title>records</title><g id="Layer_2" data-name="Layer 2"><g id="Layer_1-2" data-name="Layer 1"><g class="cls-2"><path d="M68.66,4.82a1,1,0,0,0-.7-.36L52.71,3.16,52.43,1a1,1,0,0,0-1.15-.9L37.13,1.84l-.17,0L17.52.15a1,1,0,0,0-1.12.94l-.29,3.4L1.05,6.38a1,1,0,0,0-.9,1.15L7.84,68.69a3.2,3.2,0,0,0,.09.81,1,1,0,0,0,1,.63H59.51a1,1,0,0,0,1-1V67.76l2,.17A1,1,0,0,0,63.66,67L68.9,5.58a1,1,0,0,0-.24-.76ZM7.85,52.21,2.33,8.3l5.52-.7ZM18.37,2.29l9,.78L18.2,4.22Zm32.15,0L51,6.43H17.16ZM61.69,65.78l-1.15-.09V35.53a1,1,0,0,0-2.06,0V68.07H9.91V8.5H58.48V30.72a1,1,0,0,0,2.06,0V7.46a1,1,0,0,0-1-1H53.12L53,5.25,66.76,6.43Z" transform="translate(-0.15 -0.05)"/></g><path d="M54,11.94H48.5a1,1,0,0,0-.85.46l-2.34,3.5A15.24,15.24,0,0,0,36.4,13a1,1,0,0,0-1,1V28.38a1,1,0,0,0,1,1H50.71a1,1,0,0,0,1-1,15.29,15.29,0,0,0-4.83-11.16L49.06,14H54a1,1,0,1,0,0-2.06Zm-4.38,15.4H37.43V15.14a13.17,13.17,0,0,1,6.73,2.48L43.24,19A1,1,0,0,0,45,20.14L45.75,19a13.25,13.25,0,0,1,3.88,8.38Z" transform="translate(-0.15 -0.05)"/><path d="M54,46.06H44.67L43,43.42a15.3,15.3,0,0,0,4.31-10.64,1,1,0,0,0-1-1H33V18.47a1,1,0,0,0-1-1,15.34,15.34,0,1,0,9.48,27.39l1.76,2.8a1,1,0,0,0,.87.49H54a1,1,0,0,0,0-2.06ZM39.47,37.74a1,1,0,0,0-1.75,1.09l2.65,4.24A13.27,13.27,0,1,1,31,19.54V32.78a1,1,0,0,0,1,1H45.23a13.19,13.19,0,0,1-3.33,7.8Z" transform="translate(-0.15 -0.05)"/><path d="M23.19,51.56H14.38a1,1,0,0,0,0,2.06h8.81a1,1,0,0,0,0-2.06Z" transform="translate(-0.15 -0.05)"/><path d="M36.4,51.56H27.59a1,1,0,0,0,0,2.06H36.4a1,1,0,1,0,0-2.06Z" transform="translate(-0.15 -0.05)"/><path d="M28.69,57.06H14.38a1,1,0,0,0,0,2.07H28.69a1,1,0,0,0,0-2.07Z" transform="translate(-0.15 -0.05)"/><path d="M36.4,57.06H33.1a1,1,0,1,0,0,2.07h3.3a1,1,0,0,0,0-2.07Z" transform="translate(-0.15 -0.05)"/><path d="M18.79,62.57H14.38a1,1,0,0,0,0,2.06h4.41a1,1,0,1,0,0-2.06Z" transform="translate(-0.15 -0.05)"/><path d="M36.4,62.57H23.19a1,1,0,0,0,0,2.06H36.4a1,1,0,1,0,0-2.06Z" transform="translate(-0.15 -0.05)"/></g></g></svg>