<svg xmlns="http://www.w3.org/2000/svg" xmlns:xlink="http://www.w3.org/1999/xlink" viewBox="0 0 75.51 75.51"><defs><style>.cls-1{fill:none;}.cls-2{clip-path:url(#clip-path);}</style><clipPath id="clip-path" transform="translate(0 -0.19)"><rect class="cls-1" width="75.51" height="75.89"/></clipPath></defs><title>reports</title><g id="Layer_2" data-name="Layer 2"><g id="Layer_1-2" data-name="Layer 1"><g class="cls-2"><path d="M75.28,48.54a1.27,1.27,0,0,0-1-.53H62.93V11.52a1.26,1.26,0,0,0-1.26-1.26H57.89V6.48a1.26,1.26,0,0,0-1.25-1.26H26.43a5,5,0,0,0-10.07,0H12.59a1.26,1.26,0,0,0-1.26,1.26V48H1.26A1.26,1.26,0,0,0,0,49.27a1.21,1.21,0,0,0,.16.61L14,75.05a1.25,1.25,0,0,0,1.1.65H65.45a1.2,1.2,0,0,0,1.18-.84h0l8.81-25.18a1.23,1.23,0,0,0-.16-1.14ZM57.89,58.08V12.77h2.52V62.68l-2.53-4.6ZM21.4,2.71a2.51,2.51,0,0,1,2.51,2.51h-5A2.51,2.51,0,0,1,21.4,2.71Zm-7.56,5H23.91v3.78a1.26,1.26,0,0,1-2.51,0V10.26H18.88v1.26a3.78,3.78,0,0,0,7.55,0V7.74h29V53.53L52.7,48.67A1.24,1.24,0,0,0,51.6,48H13.84Zm2,65.44L3.39,50.53H50.86L63.32,73.18Zm49.34-1.81-2.26-4.11V50.53h9.55Z" transform="translate(0 -0.19)"/></g><path d="M62.93,5.22H60.41V7.74h2.52a2.52,2.52,0,0,1,2.52,2.52V27.88H68V10.26a5,5,0,0,0-5-5Z" transform="translate(0 -0.19)"/><rect x="65.44" y="30.21" width="2.52" height="2.52"/><rect x="6.29" y="25.17" width="2.52" height="17.62"/><rect x="6.29" y="20.14" width="2.52" height="2.52"/><path d="M42.79,16.55H39V12.77a1.26,1.26,0,0,0-1.26-1.25h-5a1.26,1.26,0,0,0-1.26,1.25v3.78H27.69a1.25,1.25,0,0,0-1.26,1.26v5a1.25,1.25,0,0,0,1.26,1.26h3.77v3.78a1.27,1.27,0,0,0,1.26,1.26h5A1.27,1.27,0,0,0,39,27.88V24.1h3.77a1.25,1.25,0,0,0,1.26-1.26v-5a1.25,1.25,0,0,0-1.26-1.26Zm-1.26,5H37.76a1.26,1.26,0,0,0-1.26,1.26v3.78H34V22.84a1.26,1.26,0,0,0-1.26-1.26H29V19.07h3.77A1.26,1.26,0,0,0,34,17.81V14H36.5v3.78a1.26,1.26,0,0,0,1.26,1.26h3.77Z" transform="translate(0 -0.19)"/><rect x="20.14" y="31.46" width="2.52" height="2.52"/><rect x="25.17" y="31.46" width="26.43" height="2.52"/><rect x="17.62" y="36.5" width="33.98" height="2.52"/><rect x="17.62" y="41.53" width="28.95" height="2.52"/><rect x="50.13" y="11.33" width="2.59" height="2.52"/><rect x="50.34" y="16.36" width="2.52" height="2.52"/></g></g></svg>