<svg xmlns="http://www.w3.org/2000/svg" viewBox="0 0 84.64 87.7"><title>robot</title><g id="Layer_2" data-name="Layer 2"><g id="Layer_1-2" data-name="Layer 1"><path d="M64.29,44H18.7A1.72,1.72,0,0,1,17,42.23V9.43A1.72,1.72,0,0,1,18.7,7.71H49.46a1.72,1.72,0,1,1,0,3.43h-29V40.52H62.57V11.14H57.45a1.72,1.72,0,0,1,0-3.43h6.84A1.72,1.72,0,0,1,66,9.43v32.8A1.72,1.72,0,0,1,64.29,44Z"/><path d="M50,34.32h-.1a1.71,1.71,0,0,1-1.49-1.07l-4-9.84-4.13,9.86a1.72,1.72,0,0,1-3.19-.07l-2.54-6.85-1,1.37a1.7,1.7,0,0,1-1.39.71H26.8a1.71,1.71,0,0,1,0-3.42h4.53l2.36-3.27a1.71,1.71,0,0,1,3,.4l2.15,5.8,4.06-9.68a1.71,1.71,0,0,1,1.58-1.05h0a1.72,1.72,0,0,1,1.58,1.06l4.21,10.37.82-1.47a1.7,1.7,0,0,1,1.5-.89h5.25a1.71,1.71,0,0,1,0,3.42H53.6l-2.06,3.74a1.72,1.72,0,0,1-1.5.88Z"/><path d="M74.68,12.86V4.67A4.68,4.68,0,0,0,70,0H14.64A4.68,4.68,0,0,0,10,4.67v8.19A10.78,10.78,0,0,0,0,23.59v.05A10.78,10.78,0,0,0,10,34.37V47a4.69,4.69,0,0,0,4.68,4.68H33.32v5.4H25.64a7.52,7.52,0,0,0-13.18-1.15H8.65A5.16,5.16,0,0,0,3.5,61.06V86A1.72,1.72,0,0,0,5.22,87.7h6.87A1.72,1.72,0,0,0,13.8,86V66.21h.63A7.46,7.46,0,0,0,17,67.37V86a1.71,1.71,0,0,0,1.71,1.71H65.9A1.71,1.71,0,0,0,67.61,86V67.37a7.46,7.46,0,0,0,2.6-1.16h.63V86a1.72,1.72,0,0,0,1.71,1.71h6.87A1.72,1.72,0,0,0,81.14,86V61.06A5.16,5.16,0,0,0,76,55.91H72.18A7.52,7.52,0,0,0,59,57.06H51.32v-5.4H70A4.69,4.69,0,0,0,74.68,47V34.37a10.78,10.78,0,0,0,10-10.73v-.05a10.78,10.78,0,0,0-10-10.73ZM3.43,23.64v-.05A7.34,7.34,0,0,1,10,16.3V30.93a7.34,7.34,0,0,1-6.53-7.29ZM18.74,56a4.09,4.09,0,1,1-4.09,4.09A4.09,4.09,0,0,1,18.74,56Zm-8.37,8.53V84.28H6.93V61.06a1.72,1.72,0,0,1,1.72-1.72h2.6c0,.23,0,.47,0,.71a7.54,7.54,0,0,0,.53,2.77,1.7,1.7,0,0,0-1.38,1.67ZM20.45,84.28V82.17H50.78a1.71,1.71,0,1,0,0-3.42H20.45V67.37a7.53,7.53,0,0,0,5.79-6.89H58.39a7.55,7.55,0,0,0,5.8,6.89V84.28ZM76,59.34a1.72,1.72,0,0,1,1.72,1.72V84.28H74.27V64.49a1.7,1.7,0,0,0-1.38-1.67,7.5,7.5,0,0,0,.53-2.77c0-.24,0-.48,0-.71ZM65.9,56a4.09,4.09,0,1,1-4.09,4.09A4.09,4.09,0,0,1,65.9,56Zm-18,1.1H36.74v-5.4H47.9ZM71.25,47A1.25,1.25,0,0,1,70,48.23H14.64A1.25,1.25,0,0,1,13.39,47V4.67a1.25,1.25,0,0,1,1.25-1.24H70a1.25,1.25,0,0,1,1.25,1.24Zm10-23.34a7.34,7.34,0,0,1-6.53,7.29V16.3a7.34,7.34,0,0,1,6.53,7.29Z"/><path d="M58.05,82.17a2,2,0,0,1-.34,0,1.31,1.31,0,0,1-.32-.1,1.59,1.59,0,0,1-.29-.15,2.05,2.05,0,0,1-.48-.48,1.59,1.59,0,0,1-.15-.29,1.31,1.31,0,0,1-.1-.32,2,2,0,0,1,0-.34A1.68,1.68,0,0,1,57.1,79a1.64,1.64,0,0,1,.29-.16,2,2,0,0,1,.32-.1,1.89,1.89,0,0,1,.67,0,1.7,1.7,0,0,1,.32.1A1.43,1.43,0,0,1,59,79a1.58,1.58,0,0,1,.47.47,1.43,1.43,0,0,1,.16.3,1.7,1.7,0,0,1,.1.32,1.84,1.84,0,0,1,0,.33,1.58,1.58,0,0,1-.13.66,1.64,1.64,0,0,1-.16.29,1.33,1.33,0,0,1-.21.26,2.75,2.75,0,0,1-.26.22,1.4,1.4,0,0,1-.3.15,1.19,1.19,0,0,1-.32.1,1.84,1.84,0,0,1-.33,0Z"/></g></g></svg>