<svg xmlns="http://www.w3.org/2000/svg" viewBox="0 0 496 489.89"><title>transfer</title><g id="Layer_2" data-name="Layer 2"><g id="Layer_1-2" data-name="Layer 1"><rect x="32" y="356.95" width="16" height="16"/><rect x="64" y="356.95" width="16" height="16"/><rect x="224" y="372.94" width="16" height="16"/><rect x="192" y="372.94" width="16" height="16"/><rect x="32" y="228.95" width="16" height="16"/><rect x="64" y="228.95" width="16" height="16"/><rect x="224" y="244.95" width="16" height="16"/><rect x="192" y="244.95" width="16" height="16"/><rect x="32" y="100.95" width="16" height="16"/><rect x="64" y="100.95" width="16" height="16"/><rect x="224" y="116.94" width="16" height="16"/><rect x="192" y="116.94" width="16" height="16"/><path d="M472,108.94H390.11l-32,16H272v-32a24,24,0,0,0-24-24H24a24,24,0,0,0-24,24v48a24,24,0,0,0,24,24h8v32H24A24,24,0,0,0,0,221v48a24,24,0,0,0,24,24h8v32H24a24,24,0,0,0-24,24v48a24,24,0,0,0,24,24H248a24,24,0,0,0,24-24V381H472a24,24,0,0,0,24-24v-224a24,24,0,0,0-24-24ZM16,141v-48a8,8,0,0,1,8-8H248a8,8,0,0,1,8,8v48a8,8,0,0,1-8,8H24a8,8,0,0,1-8-8Zm32,24H224v32H48Zm-32,104V221a8,8,0,0,1,8-8H248a8,8,0,0,1,8,8v48a8,8,0,0,1-8,8H24a8,8,0,0,1-8-8Zm32,24H224v32H48Zm208,104a8,8,0,0,1-8,8H24a8,8,0,0,1-8-8v-48a8,8,0,0,1,8-8H248a8,8,0,0,1,8,8Zm216-32H272v-16a24,24,0,0,0-24-24h-8v-32h8a24,24,0,0,0,24-24V221a24,24,0,0,0-24-24h-8V165h8a24,24,0,0,0,24-24h89.89l32-16H472a8,8,0,0,1,8,8v40H288v16H480V357a8,8,0,0,1-8,8Z"/><rect x="384" y="140.95" width="80" height="16"/><path d="M288,348.94H464V221H288Zm16-112H448v96H304Z"/><rect x="320" y="252.94" width="112" height="16"/><rect x="320" y="284.94" width="112" height="16"/><path d="M352,68.94H488V53H336V64L297.89,44.94l38.11-19V37H456v-16H352V0L262.11,44.94l89.89,45Z"/><rect x="472" y="20.94" width="16" height="16"/><path d="M400,421H288v16H416V425.89L454.11,445,416,464V452.94H320v16h80v20.94L489.89,445,400,400Z"/><rect x="288" y="452.94" width="16" height="16"/></g></g></svg>