<svg xmlns="http://www.w3.org/2000/svg" xmlns:xlink="http://www.w3.org/1999/xlink" viewBox="0 0 90.62 74.51"><defs><style>.cls-1{fill:none;}.cls-2{clip-path:url(#clip-path);}</style><clipPath id="clip-path" transform="translate(0 -0.18)"><rect class="cls-1" width="90.71" height="75"/></clipPath></defs><title>wifi</title><g id="Layer_2" data-name="Layer 2"><g id="Layer_1-2" data-name="Layer 1"><g class="cls-2"><path d="M51,68.85A5.84,5.84,0,1,1,45.13,63,5.84,5.84,0,0,1,51,68.85Z" transform="translate(0 -0.18)"/><path d="M89.67,19.53A60.52,60.52,0,0,0,1,19.53a3.54,3.54,0,1,0,5.18,4.83,53.44,53.44,0,0,1,78.36,0,3.54,3.54,0,1,0,5.18-4.83Z" transform="translate(0 -0.18)"/></g><path d="M76.67,34.15A44.11,44.11,0,0,0,45.31,20.72,44.07,44.07,0,0,0,14,34.15a3.54,3.54,0,1,0,5,5A37,37,0,0,1,45.31,27.8,37.05,37.05,0,0,1,71.65,39.14a3.54,3.54,0,1,0,5-5Z" transform="translate(0 -0.18)"/><path d="M62.5,48.81a25.52,25.52,0,0,0-17.22-7.39H45a25.53,25.53,0,0,0-17.23,7.39,3.54,3.54,0,0,0,2.49,6.06,3.5,3.5,0,0,0,2.49-1A18.46,18.46,0,0,1,45,48.5h.26a18.46,18.46,0,0,1,12.24,5.34,3.54,3.54,0,1,0,5-5Z" transform="translate(0 -0.18)"/></g></g></svg>