<svg xmlns="http://www.w3.org/2000/svg" viewBox="0 0 45.6 39.67"><defs><style>.cls-1{fill:#fff;}</style></defs><title>cloud-logo-white</title><g id="Layer_2" data-name="Layer 2"><g id="Layer_1-2" data-name="Layer 1"><path class="cls-1" d="M14.52,26.17h.21c2.2,0,6.35-2.12,8.73-7.94.76-1.85.81-3.29.14-4.29a3,3,0,0,0-2.06-1.24,14.21,14.21,0,0,1,2-1,1.47,1.47,0,0,1,1.61.25c.69.78.64,2.6.56,3.23a.73.73,0,0,0,1.32.51,7,7,0,0,0,1.11-4.38c-.3-3.42-2.31-3.93-3.47-3.93A9.65,9.65,0,0,0,19.9,9.14C18.36,10.08,14,14.09,14,18a2.7,2.7,0,0,0,2.85,2.94,2.66,2.66,0,0,1-2.24.76c-1.8-.3-1.37-3.06-1.35-3.17a.73.73,0,0,0-1.39-.41c-1,2.39-1.06,4.69-.07,6.32a3.55,3.55,0,0,0,2.71,1.74Z"/><path class="cls-1" d="M41.44,2.34A9.48,9.48,0,0,0,34.91,0C28.06,0,20.76,5.49,20.45,5.72a.76.76,0,0,0-.15,1,.74.74,0,0,0,1,.22l.24-.08a10.43,10.43,0,0,1,6.89-1.78,3.4,3.4,0,0,1,2.48,1.48,4.46,4.46,0,0,1,.4,2.82A23,23,0,0,1,24.1,23.49c-2.43,2.34-5.83,4.94-9.34,5.17a4.32,4.32,0,0,1-3.62-1.11,4.85,4.85,0,0,1-1.08-3.21.75.75,0,0,0-.43-.72.72.72,0,0,0-.82.16c-1.31,1.31-1.62,3.93-1.64,5.87C3.34,22.77,9.88,11.9,10,11.78a.75.75,0,0,0-.09-.88A.72.72,0,0,0,9,10.75C4.3,13.16,1,22.2.87,22.59A14.14,14.14,0,0,0,2.26,35.25a10.76,10.76,0,0,0,9.06,4.42c3.52,0,7.48-1.28,11.77-3.81C36.47,28,39.48,16.13,40.16,11.31c3.31,6.69-2.25,16.21-2.32,16.31a.71.71,0,0,0,.16.92.73.73,0,0,0,.94,0c3.78-3.19,6.58-9.75,6.66-15.6,0-4.46-1.38-8.13-4.16-10.6Z"/></g></g></svg>