<svg xmlns="http://www.w3.org/2000/svg" viewBox="0 0 37.55 32.67"><defs><style>.cls-1{fill:#0067ff;}</style></defs><title>cloud-logo</title><g id="Layer_2" data-name="Layer 2"><g id="Layer_1-2" data-name="Layer 1"><path class="cls-1" d="M12,21.55h.17c1.82,0,5.23-1.74,7.19-6.54.63-1.52.67-2.71.12-3.53a2.48,2.48,0,0,0-1.7-1,10.6,10.6,0,0,1,1.63-.8c.61-.18,1-.12,1.32.21a4.13,4.13,0,0,1,.47,2.65.59.59,0,0,0,.38.63.58.58,0,0,0,.7-.21,5.77,5.77,0,0,0,.92-3.61c-.25-2.81-1.9-3.23-2.86-3.23a7.93,7.93,0,0,0-3.91,1.42c-1.27.77-4.9,4.08-4.85,7.28a2.22,2.22,0,0,0,2.35,2.42,2.25,2.25,0,0,1-1.85.64c-1.48-.25-1.13-2.52-1.11-2.61a.6.6,0,0,0-.42-.68.61.61,0,0,0-.73.33,5.74,5.74,0,0,0-.06,5.21A2.92,2.92,0,0,0,12,21.55Z"/><path class="cls-1" d="M34.13,1.93A7.79,7.79,0,0,0,28.75,0C23.11,0,17.1,4.52,16.85,4.71a.63.63,0,0,0-.13.85.61.61,0,0,0,.82.18l.2-.07a8.6,8.6,0,0,1,5.67-1.46,2.84,2.84,0,0,1,2.05,1.21,3.79,3.79,0,0,1,.33,2.33,19,19,0,0,1-5.95,11.59c-2,1.93-4.79,4.07-7.68,4.27a3.58,3.58,0,0,1-3-.92A4,4,0,0,1,8.28,20a.6.6,0,0,0-1-.46c-1.09,1.09-1.34,3.24-1.36,4.83C2.75,18.75,8.14,9.8,8.2,9.7A.6.6,0,0,0,8.13,9a.61.61,0,0,0-.72-.13C3.54,10.84.83,18.28.72,18.6A11.66,11.66,0,0,0,1.86,29a8.87,8.87,0,0,0,7.46,3.64c2.9,0,6.16-1.06,9.7-3.14A28.08,28.08,0,0,0,33.07,9.31c2.73,5.51-1.85,13.36-1.9,13.43a.6.6,0,0,0,.9.77c3.11-2.63,5.42-8,5.48-12.85C37.6,7,36.42,4,34.13,1.93Z"/></g></g></svg>